<svg id="visual" viewBox="0 0 960 540" width="960" height="540" xmlns="http://www.w3.org/2000/svg" xmlns:xlink="http://www.w3.org/1999/xlink" version="1.1"><rect x="0" y="0" width="960" height="540" fill="#FFFFFF"></rect><defs><linearGradient id="grad1_0" x1="43.8%" y1="0%" x2="100%" y2="100%"><stop offset="14.444444444444446%" stop-color="#ffffff" stop-opacity="1"></stop><stop offset="85.55555555555554%" stop-color="#ffffff" stop-opacity="1"></stop></linearGradient></defs><defs><linearGradient id="grad2_0" x1="0%" y1="0%" x2="56.3%" y2="100%"><stop offset="14.444444444444446%" stop-color="#ffffff" stop-opacity="1"></stop><stop offset="85.55555555555554%" stop-color="#ffffff" stop-opacity="1"></stop></linearGradient></defs><g transform="translate(960, 0)"><path d="M0 378C-40.5 374.7 -80.9 371.4 -115.9 356.6C-150.9 341.9 -180.4 315.6 -212.8 292.9C-245.2 270.2 -280.5 251.1 -305.8 222.2C-331.1 193.3 -346.3 154.5 -356.6 115.9C-367 77.2 -372.5 38.6 -378 0L0 0Z" fill="#DE0D6F"></path></g><g transform="translate(0, 540)"><path d="M0 -378C40 -375 80.1 -372 116.8 -359.5C153.6 -347 187 -325 218.7 -301C250.3 -276.9 280.2 -250.8 301.8 -219.2C323.4 -187.7 336.8 -150.6 348.1 -113.1C359.4 -75.6 368.7 -37.8 378 0L0 0Z" fill="#DE0D6F"></path></g></svg>