<?xml version="1.0" encoding="UTF-8"?>
<svg version="1.1" xmlns="http://www.w3.org/2000/svg" width="538" height="229">
<path d="M0 0 C4.19101161 3.68809022 7.3704049 7.61219995 9 13 C9.1953125 16.55078125 9.1953125 16.55078125 9.125 20.3125 C9.10695313 21.56675781 9.08890625 22.82101563 9.0703125 24.11328125 C9.04710937 25.06589844 9.02390625 26.01851562 9 27 C10.299375 27.144375 11.59875 27.28875 12.9375 27.4375 C16.875 27.875 16.875 27.875 18 29 C17.57823401 34.27207486 16.21534483 38.28035231 14 43 C17.30419145 42.27734878 17.30419145 42.27734878 18.68359375 38.91015625 C19.57964303 36.98375053 20.4450253 35.04553848 21.30664062 33.10351562 C23.55013809 28.29173822 23.55013809 28.29173822 26.22265625 26.55859375 C26.80917969 26.37425781 27.39570313 26.18992187 28 26 C28.99 26.66 29.98 27.32 31 28 C30.50341703 33.66104589 29.45489316 37.87674471 27 43 C29.02060558 41.18145498 30.27296089 39.54506518 31.6875 37.1875 C35.35347326 32.13440173 40.80324639 27.50731845 47 26 C49.67770941 26.31136156 51.59556732 26.79778366 54 28 C54 28.66 54 29.32 54 30 C57.43336197 30.23953688 59.41638948 30.36859612 62.375 28.5 C66.1469201 26.34461709 68.68801796 26.64655885 73 27 C73.99 27.99 73.99 27.99 75 29 C76.85266073 28.70514846 76.85266073 28.70514846 79 28 C83.21988119 27.19592522 87.33103878 26.7557295 91.625 26.625 C93.28402344 26.55152344 93.28402344 26.55152344 94.9765625 26.4765625 C98 27 98 27 100.37890625 29.265625 C102.75056941 33.26602069 102.3700178 35.41177931 102 40 C101.67 40.99 101.34 41.98 101 43 C101.66 43 102.32 43 103 43 C103.226875 42.05125 103.45375 41.1025 103.6875 40.125 C105 37 105 37 107.625 35.625 C108.40875 35.41875 109.1925 35.2125 110 35 C110.6640625 36.71484375 110.6640625 36.71484375 111 39 C108.99332633 43.35282221 106.09403838 47.04271642 102.5 50.1875 C99.01612704 51.31975871 97.24086227 50.58442155 94 49 C91.43383368 45.15075052 91.44902324 42.5650696 91 38 C87.44104242 42.62828522 87.44104242 42.62828522 85.0625 47.875 C84.711875 48.57625 84.36125 49.2775 84 50 C80.875 50.8125 80.875 50.8125 78 51 C76.87622303 47.69564916 77.10445258 45.9493138 78.4375 42.75 C78.86869141 41.69039062 78.86869141 41.69039062 79.30859375 40.609375 C79.53675781 40.07828125 79.76492188 39.5471875 80 39 C79.319375 39.70125 78.63875 40.4025 77.9375 41.125 C68.27295918 50.78954082 68.27295918 50.78954082 62.625 51.3125 C58.36179748 50.94498254 57.80036156 49.99348994 55 47 C52.27029738 47.08805492 50.90789116 48.06059792 48.625 49.5625 C45.41720294 51.31915077 43.61283023 51.45160378 40 51 C38.7625 50.195625 38.7625 50.195625 37.5 49.375 C35.0014293 47.63363809 35.0014293 47.63363809 31.9375 48.75 C30.968125 49.1625 29.99875 49.575 29 50 C27 50.75 27 50.75 25 51 C23.63875 50.38125 23.63875 50.38125 22.25 49.75 C19.16489261 48.67807405 19.16489261 48.67807405 17.15234375 49.90625 C15.80874044 50.82513576 14.46634711 51.74579261 13.125 52.66796875 C9.56493141 54.89955586 6.2152564 55.98624712 2 56 C-0.72360058 55.18762306 -3.26904176 54.12727915 -5.890625 53.03125 C-12.00735122 51.00258703 -20.12363308 50.08535162 -26.43359375 51.57421875 C-30.15542277 52.19169114 -33.54438316 51.37670194 -37.1875 50.625 C-37.91130859 50.48578125 -38.63511719 50.3465625 -39.38085938 50.203125 C-44.68632392 49.15683804 -44.68632392 49.15683804 -47 48 C-47 46.35 -47 44.7 -47 43 C-43.73454239 41.11608215 -40.71888239 40.50712033 -37 40 C-37.33773437 39.50371094 -37.67546875 39.00742188 -38.0234375 38.49609375 C-42.27615632 32.01868675 -44.93913875 25.91559806 -44 18 C-40.79084985 8.6262963 -35.31268684 4.19420283 -26.8125 -0.3125 C-18.44222026 -4.22187484 -8.23625586 -4.53069084 0 0 Z M-32.125 9.25 C-35.73884777 14.55031007 -38.74628921 19.37523601 -38.39453125 25.98046875 C-37.4409367 30.86173988 -35.00023722 35.9399107 -31 39 C-25.87853643 39.89243714 -21.30839935 39.62997006 -16.625 37.375 C-11.60800631 32.83581523 -7.24897216 28.48561025 -6.75 21.5 C-6.79156517 17.77961668 -6.79156517 17.77961668 -9 14 C-12.3 14.33 -15.6 14.66 -19 15 C-19 10 -19 10 -17 8 C-13.04407344 8.31396243 -9.75516546 8.74827818 -6 10 C-4.9375 11.875 -4.9375 11.875 -4 14 C-3.34 14.99 -2.68 15.98 -2 17 C-1.5859375 19.48046875 -1.5859375 19.48046875 -1.375 22.1875 C-1.30023438 23.08855469 -1.22546875 23.98960938 -1.1484375 24.91796875 C-1.09945312 25.60503906 -1.05046875 26.29210937 -1 27 C-0.01 26.34 0.98 25.68 2 25 C2.30545856 22.30178275 2.41818928 19.88203133 2.375 17.1875 C2.38660156 16.47529297 2.39820313 15.76308594 2.41015625 15.02929688 C2.38505675 10.50720292 1.84140115 7.55012592 -1 4 C-11.25482057 -3.93554851 -23.81718927 0.45349453 -32.125 9.25 Z M5 34 C2.20560661 35.74168234 2.20560661 35.74168234 -0.625 38.1875 C-1.60726562 38.98542969 -2.58953125 39.78335938 -3.6015625 40.60546875 C-6.39668385 43.34594349 -6.39668385 43.34594349 -7 47 C-4.31907309 49.68092691 -2.60832637 49.38670257 1.125 49.625 C2.76855469 49.73714844 2.76855469 49.73714844 4.4453125 49.8515625 C5.28835937 49.90054688 6.13140625 49.94953125 7 50 C8.09506492 46.71480525 8.09960608 44.26336585 8.0625 40.8125 C8.04896484 39.18248047 8.04896484 39.18248047 8.03515625 37.51953125 C8.01775391 36.27236328 8.01775391 36.27236328 8 35 C7.01 34.67 6.02 34.34 5 34 Z M60 41 C59.67 41.99 59.34 42.98 59 44 C60.10041919 45.68681738 60.10041919 45.68681738 62 47 C65.55339426 46.92597095 67.33225311 46.66774689 69.875 44.125 C71.23394386 41.95884321 71.23394386 41.95884321 71 39 C66.82851735 38.80597755 63.71055417 38.98569917 60 41 Z M40 40 C39.32041397 42.39719432 39.32041397 42.39719432 39 45 C40.88138759 47.28930236 40.88138759 47.28930236 43.9375 47.375 C47.04836542 47.29891329 47.04836542 47.29891329 48.875 45.25 C50.2981424 42.82297795 50.2981424 42.82297795 50 39 C46.58900832 39 43.36911686 39.49145406 40 40 Z " fill="#F6F5FA" transform="translate(247,73)"/>
<path d="M0 0 C0.99 0.33 1.98 0.66 3 1 C1.56030948 6.03891682 -1.01900215 7.86602297 -5 11 C-5.33 11.66 -5.66 12.32 -6 13 C-6.66 13 -7.32 13 -8 13 C-8 13.99 -8 14.98 -8 16 C-5.69 16.99 -3.38 17.98 -1 19 C-1 19.99 -1 20.98 -1 22 C-3.31 22.99 -5.62 23.98 -8 25 C-8 25.66 -8 26.32 -8 27 C-7.175 27.37125 -6.35 27.7425 -5.5 28.125 C-4.675 28.74375 -3.85 29.3625 -3 30 C-3.0326361 31.95816614 -3.07520129 33.91821465 -3.22265625 35.87109375 C-2.86110062 39.32807304 -0.72281692 41.10808814 1.6875 43.45703125 C3 45 3 45 3 48 C-1.56664195 47.46274801 -4.24147184 45.55579915 -8 43 C-10.33124929 41.99515117 -12.66443537 40.99477753 -15 40 C-17.4375 38.3125 -17.4375 38.3125 -19 37 C-19.66 39.64 -20.32 42.28 -21 45 C-22.32 45.20625 -23.64 45.4125 -25 45.625 C-31.41531197 47.05842127 -35.46050869 50.7934168 -40.32421875 55.01953125 C-41.10410156 55.67308594 -41.88398438 56.32664063 -42.6875 57 C-43.74517578 57.928125 -43.74517578 57.928125 -44.82421875 58.875 C-47 60 -47 60 -49.2890625 59.4296875 C-50.18367188 58.95789063 -51.07828125 58.48609375 -52 58 C-52.58402588 57.71543945 -53.16805176 57.43087891 -53.76977539 57.13769531 C-55.76026026 56.16549848 -57.72363138 55.14979274 -59.6875 54.125 C-60.36361328 53.78597656 -61.03972656 53.44695312 -61.73632812 53.09765625 C-65.4084047 51.17575349 -67.46785759 49.88086623 -69 46 C-70.99054876 45.30562253 -72.99255385 44.64389782 -75 44 C-80.05206522 41.15207554 -83.06955904 37.95920778 -86 33 C-86.33 32.67 -86.66 32.34 -87 32 C-87 26.00621214 -84.97270616 23.07307938 -80.87890625 18.7890625 C-70.20641342 8.62689677 -55.8398441 9.39310037 -42 9 C-42.99 8.01 -43.98 7.02 -45 6 C-44.67 5.01 -44.34 4.02 -44 3 C-41.50638429 4.20381448 -39.31856917 5.45428722 -37 7 C-34.81813053 7.3157994 -34.81813053 7.3157994 -32.5 7.25 C-31.33984375 7.25773437 -31.33984375 7.25773437 -30.15625 7.265625 C-27.70486156 7.12738062 -27.70486156 7.12738062 -25 5 C-21.8125 4.875 -21.8125 4.875 -19 5 C-17 10.75 -17 10.75 -17 13 C-9.54299413 7.73176755 -9.54299413 7.73176755 -2.5 1.9375 C-1.2625 0.9784375 -1.2625 0.9784375 0 0 Z M-26 20 C-26 22.31 -26 24.62 -26 27 C-22.21812119 28.83691257 -20.05431692 29.15837626 -16 28 C-14.69940936 25.26814404 -14.69940936 25.26814404 -14 22 C-15.02877392 19.08919881 -15.02877392 19.08919881 -17 17 C-20.69418201 17 -22.77836178 18.28179295 -26 20 Z " fill="#FDADDA" transform="translate(187,35)"/>
<path d="M0 0 C0.99 0.33 1.98 0.66 3 1 C3.33 4.3 3.66 7.6 4 11 C4.74765625 10.95359375 5.4953125 10.9071875 6.265625 10.859375 C14.50219987 10.557511 14.50219987 10.557511 17.25 13 C17.8275 13.66 18.405 14.32 19 15 C22.6675213 15.33417929 22.6675213 15.33417929 26 15 C26.99 12.03 27.98 9.06 29 6 C30.32 6 31.64 6 33 6 C33.23460937 6.63421875 33.46921875 7.2684375 33.7109375 7.921875 C34.82290908 10.18250739 34.82290908 10.18250739 37.1640625 10.828125 C37.97617187 10.96734375 38.78828125 11.1065625 39.625 11.25 C40.44226563 11.39953125 41.25953125 11.5490625 42.1015625 11.703125 C42.72804688 11.80109375 43.35453125 11.8990625 44 12 C44 12.66 44 13.32 44 14 C44.886875 13.484375 45.77375 12.96875 46.6875 12.4375 C50.20023331 10.9131063 51.44706507 10.85052105 55 12 C55.495 13.485 55.495 13.485 56 15 C56.99 14.67 57.98 14.34 59 14 C61.52275677 13.87031902 64.02072902 13.79399427 66.54492188 13.76293945 C67.31107315 13.74982727 68.07722443 13.73671509 68.86659241 13.72320557 C71.40059411 13.68140593 73.93462737 13.64690002 76.46875 13.61328125 C78.2284768 13.58762653 79.98820172 13.56184252 81.7479248 13.53593445 C85.43656635 13.48296655 89.12523749 13.43403882 92.81396484 13.38745117 C97.54553059 13.32701833 102.27677047 13.25279994 107.00807953 13.17507648 C110.6419062 13.11754176 114.2758126 13.06921461 117.9098053 13.023489 C119.65459414 13.00005532 121.39934153 12.97329329 123.14402771 12.94317055 C125.58103276 12.90209741 128.01786243 12.87386533 130.45507812 12.84887695 C131.17828751 12.83390671 131.90149689 12.81893646 132.6466217 12.80351257 C136.34428996 12.78003211 137.83242256 12.88828171 141 15 C140.34 16.32 139.68 17.64 139 19 C137.4723703 18.98334541 137.4723703 18.98334541 135.91387939 18.96635437 C126.32029847 18.86503411 116.72682596 18.79006149 107.13283157 18.74093914 C102.20030687 18.7148357 97.26821378 18.67942403 92.3359375 18.62280273 C87.57672632 18.56850956 82.81793048 18.5385851 78.05843353 18.52561378 C76.24188446 18.51636904 74.42535834 18.49831605 72.6089859 18.47134972 C70.06597121 18.4350941 67.52467651 18.43005302 64.98144531 18.43237305 C64.22906586 18.41439667 63.4766864 18.39642029 62.70150757 18.37789917 C60.33319544 18.34677056 60.33319544 18.34677056 57 19 C54.58849711 21.35384994 54.58849711 21.35384994 53 24 C48.89564327 26.05217837 43.57324872 25.18489112 39.0625 25.1875 C37.95197266 25.19974609 36.84144531 25.21199219 35.69726562 25.22460938 C34.10108398 25.22750977 34.10108398 25.22750977 32.47265625 25.23046875 C31.49562744 25.23457764 30.51859863 25.23868652 29.51196289 25.24291992 C27 25 27 25 24 23 C20.89980614 22.75684754 19.7223778 22.69822808 17 24 C14.72336272 26.34884406 12.81420994 28.8101423 10.89453125 31.45703125 C6.16457176 37.80590471 6.16457176 37.80590471 2.375 38.4375 C1.59125 38.293125 0.8075 38.14875 0 38 C-2.78637633 33.8204355 -1.79562512 31.85331323 -1 27 C-1.969375 26.443125 -2.93875 25.88625 -3.9375 25.3125 C-7 23 -7 23 -7.90234375 20.90234375 C-8.04903381 16.54271526 -6.36571303 13.18985811 -4.625 9.25 C-4.295 8.47011719 -3.965 7.69023437 -3.625 6.88671875 C-1.18614647 1.18614647 -1.18614647 1.18614647 0 0 Z " fill="#F6F3F8" transform="translate(219,127)"/>
<path d="M0 0 C0.99 0.33 1.98 0.66 3 1 C1.56030948 6.03891682 -1.01900215 7.86602297 -5 11 C-5.33 11.66 -5.66 12.32 -6 13 C-6.66 13 -7.32 13 -8 13 C-8 13.99 -8 14.98 -8 16 C-5.69 16.99 -3.38 17.98 -1 19 C-1 19.99 -1 20.98 -1 22 C-3.31 22.99 -5.62 23.98 -8 25 C-8 25.66 -8 26.32 -8 27 C-7.175 27.37125 -6.35 27.7425 -5.5 28.125 C-4.675 28.74375 -3.85 29.3625 -3 30 C-3.0326361 31.95816614 -3.07520129 33.91821465 -3.22265625 35.87109375 C-2.86110062 39.32807304 -0.72281692 41.10808814 1.6875 43.45703125 C3 45 3 45 3 48 C-1.56664195 47.46274801 -4.24147184 45.55579915 -8 43 C-10.33124929 41.99515117 -12.66443537 40.99477753 -15 40 C-17.4375 38.3125 -17.4375 38.3125 -19 37 C-19.66 39.64 -20.32 42.28 -21 45 C-22.32 45.20625 -23.64 45.4125 -25 45.625 C-30.43623499 46.83965876 -33.81071234 49.45705958 -38 53 C-39.5958995 54.32253988 -41.20012499 55.63509692 -42.8125 56.9375 C-43.54082031 57.54464844 -44.26914063 58.15179688 -45.01953125 58.77734375 C-45.67308594 59.18082031 -46.32664063 59.58429688 -47 60 C-47.99 59.67 -48.98 59.34 -50 59 C-49.46375 58.608125 -48.9275 58.21625 -48.375 57.8125 C-44.42318302 54.79663967 -40.72304933 51.73948227 -37.25 48.1875 C-35 46 -35 46 -33 46 C-32.5978125 45.1028125 -32.5978125 45.1028125 -32.1875 44.1875 C-31 42 -31 42 -29.4375 40.5 C-27.73683989 38.72539815 -27.41205818 37.38993744 -27 35 C-28.65 36.32 -30.3 37.64 -32 39 C-31.67 39.66 -31.34 40.32 -31 41 C-31.66 41 -32.32 41 -33 41 C-33 41.66 -33 42.32 -33 43 C-36 45 -36 45 -40 45 C-40 43.68 -40 42.36 -40 41 C-39.40574219 40.91363281 -38.81148437 40.82726562 -38.19921875 40.73828125 C-35.38690365 39.79418258 -34.53451551 38.57353177 -32.8125 36.1875 C-32.30332031 35.50042969 -31.79414063 34.81335938 -31.26953125 34.10546875 C-30.02267792 32.03761046 -29.44004843 30.35929578 -29 28 C-29.99 27.67 -30.98 27.34 -32 27 C-31.34 27 -30.68 27 -30 27 C-29.67 25.68 -29.34 24.36 -29 23 C-29.66 23 -30.32 23 -31 23 C-31 23.66 -31 24.32 -31 25 C-37.435 25.495 -37.435 25.495 -44 26 C-44 28.97 -44 31.94 -44 35 C-45.98 34.67 -47.96 34.34 -50 34 C-50.495 32.515 -50.495 32.515 -51 31 C-52.65 31.33 -54.3 31.66 -56 32 C-56.268125 31.236875 -56.53625 30.47375 -56.8125 29.6875 C-57.7988658 26.99574277 -57.7988658 26.99574277 -59.625 25.4375 C-61 24 -61 24 -61 20 C-54.73 20 -48.46 20 -42 20 C-41.67 20.99 -41.34 21.98 -41 23 C-39.35 22.34 -37.7 21.68 -36 21 C-36 20.34 -36 19.68 -36 19 C-35.01 19 -34.02 19 -33 19 C-33.94875 18.21625 -34.8975 17.4325 -35.875 16.625 C-37.67704884 15.13635096 -39.34378848 13.65621152 -41 12 C-43.65537372 11.43479997 -46.29144713 11.26211802 -49 11 C-49 10.67 -49 10.34 -49 10 C-45.535 9.505 -45.535 9.505 -42 9 C-42.99 8.01 -43.98 7.02 -45 6 C-44.67 5.01 -44.34 4.02 -44 3 C-41.50638429 4.20381448 -39.31856917 5.45428722 -37 7 C-34.81813053 7.3157994 -34.81813053 7.3157994 -32.5 7.25 C-31.33984375 7.25773437 -31.33984375 7.25773437 -30.15625 7.265625 C-27.70486156 7.12738062 -27.70486156 7.12738062 -25 5 C-21.8125 4.875 -21.8125 4.875 -19 5 C-17 10.75 -17 10.75 -17 13 C-9.54299413 7.73176755 -9.54299413 7.73176755 -2.5 1.9375 C-1.675 1.298125 -0.85 0.65875 0 0 Z M-26 20 C-26 22.31 -26 24.62 -26 27 C-22.21812119 28.83691257 -20.05431692 29.15837626 -16 28 C-14.69940936 25.26814404 -14.69940936 25.26814404 -14 22 C-15.02877392 19.08919881 -15.02877392 19.08919881 -17 17 C-20.69418201 17 -22.77836178 18.28179295 -26 20 Z " fill="#F7F5FA" transform="translate(187,35)"/>
<path d="M0 0 C3 1 3 1 3.80859375 2.609375 C4.08846469 6.10490597 3.08273229 8.91105796 2.0625 12.25 C1.68222656 13.51328125 1.30195313 14.7765625 0.91015625 16.078125 C0.45962891 17.52445313 0.45962891 17.52445313 0 19 C1.98148733 18.65840198 1.98148733 18.65840198 4 18 C4.70105843 16.34750513 5.35800351 14.67632417 6 13 C8.99247985 8.38773747 12.23218601 3.86068839 17 1 C20.125 0.5 20.125 0.5 23 1 C24.875 2.8125 24.875 2.8125 26 5 C26 5.99 26 6.98 26 8 C29.74465464 6.50213814 32.76446574 5.16823876 36.0625 2.8125 C39.43224414 0.73329617 41.11465487 0.30927198 45 1 C46.6875 2.625 46.6875 2.625 48 5 C48.5775 5.969375 49.155 6.93875 49.75 7.9375 C51.17818673 11.4365575 51.11755827 12.4672447 50 16 C48.22265625 18.421875 48.22265625 18.421875 46.0625 20.75 C45.35222656 21.52859375 44.64195312 22.3071875 43.91015625 23.109375 C42 25 42 25 40 26 C37.90625 25.94921875 37.90625 25.94921875 35.5 25.6875 C34.30890625 25.56955078 34.30890625 25.56955078 33.09375 25.44921875 C31 25 31 25 29 23 C25.19090105 23.32417863 23.21627837 23.85581442 20 26 C13.67741935 26.4516129 13.67741935 26.4516129 10 24 C6.49801924 24.33037554 3.22004924 24.94390902 -0.1875 25.8125 C-3 26 -3 26 -5.375 24.5625 C-8.13712363 20.20684351 -7.46239804 16.21551866 -6.45703125 11.3984375 C-5.18356728 6.62822441 -4.08194232 3.0966459 0 0 Z M16 15 C15.01 15.495 15.01 15.495 14 16 C14.33 17.65 14.66 19.3 15 21 C16.65 20.67 18.3 20.34 20 20 C20.33 19.01 20.66 18.02 21 17 C18.60931266 15.89363605 18.60931266 15.89363605 16 15 Z M33 17 C33 18.32 33 19.64 33 21 C35.41283832 21.86172797 36.69465714 22.08724082 39.1875 21.375 C41.25833333 20.08958333 41.25833333 20.08958333 41.75 17.375 C41.8325 16.59125 41.915 15.8075 42 15 C36.9794171 14.49708619 36.9794171 14.49708619 33 17 Z " fill="#F8F6FA" transform="translate(135,98)"/>
<path d="M0 0 C0.66 0 1.32 0 2 0 C1.7215625 0.8353125 1.7215625 0.8353125 1.4375 1.6875 C0.81636904 4.02220959 0.81636904 4.02220959 1.671875 6.34375 C2 9 2 9 0.70703125 11.45703125 C0.08183594 12.23433594 -0.54335937 13.01164062 -1.1875 13.8125 C-2.10595703 14.99779297 -2.10595703 14.99779297 -3.04296875 16.20703125 C-5 18 -5 18 -9 18 C-9 19.32 -9 20.64 -9 22 C-6.69 21.34 -4.38 20.68 -2 20 C-1.67 18.35 -1.34 16.7 -1 15 C-0.34 15 0.32 15 1 15 C1.66 13.68 2.32 12.36 3 11 C3.66 11.33 4.32 11.66 5 12 C4.69894935 15.61260785 4.29131912 16.74509577 1.5 19.1875 C0.675 19.785625 -0.15 20.38375 -1 21 C-1.33 21.66 -1.66 22.32 -2 23 C-2.66 23 -3.32 23 -4 23 C-4.226875 23.61875 -4.45375 24.2375 -4.6875 24.875 C-6.38862958 27.6292098 -8.05376154 27.82150461 -11 29 C-12.1500831 30.96672915 -12.1500831 30.96672915 -13 33 C-16 35 -16 35 -19.375 34.875 C-23.27192798 33.93436221 -25.18613454 32.81386546 -28 30 C-28 29.34 -28 28.68 -28 28 C-27.01 28 -26.02 28 -25 28 C-25 28.66 -25 29.32 -25 30 C-20.15947039 30.11001204 -16.55296823 29.51765608 -12 28 C-15.34081232 26.88639589 -17.74007509 26.96862992 -21.25 27.0625 C-26.30080756 27.11329024 -30.28105461 26.75588666 -35 25 C-35 24.01 -35 23.02 -35 22 C-33.80375 22.020625 -32.6075 22.04125 -31.375 22.0625 C-28.67254511 22.07206621 -26.37588291 21.89401785 -23.6875 21.4375 C-21 21 -21 21 -18 22 C-17.34 21.34 -16.68 20.68 -16 20 C-16.66 19.34 -17.32 18.68 -18 18 C-20.79793087 18.01979015 -20.79793087 18.01979015 -24 18.4375 C-33.25668866 19.27530184 -40.15777268 19.28497928 -48 14 C-47.34 13.67 -46.68 13.34 -46 13 C-46 12.34 -46 11.68 -46 11 C-44 12 -42 13 -40 14 C-40.33 12.35 -40.66 10.7 -41 9 C-37.83884224 10.36983503 -37.0072908 10.9890638 -35 14 C-30.0858979 13.49598953 -26.38088786 11.88063121 -22.05078125 9.64453125 C-21.37402344 9.43183594 -20.69726562 9.21914062 -20 9 C-19.01 9.66 -18.02 10.32 -17 11 C-16.01 11 -15.02 11 -14 11 C-14 8.36 -14 5.72 -14 3 C-8.83430559 1.20782031 -5.48946087 0.87970186 0 2 C0 1.34 0 0.68 0 0 Z " fill="#F79AD2" transform="translate(156,58)"/>
<path d="M0 0 C32.34 0 64.68 0 98 0 C98.495 1.98 98.495 1.98 99 4 C97.14322669 5.85677331 94.50008999 5.12655762 92.02922058 5.13552856 C91.1710524 5.13350433 90.31288422 5.1314801 89.42871094 5.12939453 C88.52951431 5.13114685 87.63031769 5.13289917 86.70387268 5.13470459 C83.71402081 5.13912639 80.72422753 5.13618298 77.734375 5.1328125 C75.66269927 5.13348568 73.59102361 5.13445583 71.51934814 5.13571167 C67.16800182 5.13718928 62.81667598 5.13503295 58.46533203 5.13037109 C52.88884719 5.12468795 47.31241063 5.12794343 41.73592758 5.13394356 C37.45340614 5.13755958 33.17089611 5.13640554 28.88837433 5.13381577 C26.83268478 5.13314865 24.77699419 5.13396743 22.72130585 5.13629532 C19.84379848 5.13883731 16.96636878 5.13495872 14.08886719 5.12939453 C13.23879593 5.13141876 12.38872467 5.13344299 11.51289368 5.13552856 C7.54105851 5.12131452 3.87712177 4.98719436 0 4 C0 2.68 0 1.36 0 0 Z " fill="#F8F1F8" transform="translate(107,141)"/>
<path d="M0 0 C0.33 1.65 0.66 3.3 1 5 C1.99 5.33 2.98 5.66 4 6 C4 5.01 4 4.02 4 3 C5.98 3 7.96 3 10 3 C10 3.99 10 4.98 10 6 C8.35 6.33 6.7 6.66 5 7 C4.84850702 10.62885324 4.84850702 10.62885324 6 14 C5.01 14 4.02 14 3 14 C3.33 15.65 3.66 17.3 4 19 C2 18 -0 17 -2 16 C-2 16.99 -2 17.98 -2 19 C5.465199 24.69035132 15.81396087 23.17722545 24.6015625 22.05859375 C25.39304688 22.03925781 26.18453125 22.01992187 27 22 C27.66 22.66 28.32 23.32 29 24 C28.505 25.485 28.505 25.485 28 27 C24.50581737 28.16472754 22.5736062 27.6082734 19 27 C18.34 27.33 17.68 27.66 17 28 C11.46153846 28.23076923 11.46153846 28.23076923 9 27 C9 27.99 9 28.98 9 30 C17.51870599 30.80170174 17.51870599 30.80170174 26.0625 30.9375 C29.01069722 31.0002276 30.54194138 31.42684249 33 33 C31.1875 34.0625 31.1875 34.0625 29 35 C28.01 34.67 27.02 34.34 26 34 C25.505 34.99 25.505 34.99 25 36 C22.03 35.505 22.03 35.505 19 35 C19 34.34 19 33.68 19 33 C18.01 33 17.02 33 16 33 C16 33.66 16 34.32 16 35 C17.485 35.495 17.485 35.495 19 36 C18.01 36.495 18.01 36.495 17 37 C14.65234375 35.890625 14.65234375 35.890625 11.9375 34.25 C11.03902344 33.71890625 10.14054687 33.1878125 9.21484375 32.640625 C7 31 7 31 6 28 C5.13375 27.71125 4.2675 27.4225 3.375 27.125 C-3.40884217 24.86371928 -7.41374469 21.06904745 -11 15 C-11.33 14.67 -11.66 14.34 -12 14 C-11.76057944 7.89477579 -10.29364959 5.0984837 -6 1 C-3.79259305 0.29764324 -2.2745544 0 0 0 Z " fill="#F8A6DB" transform="translate(112,53)"/>
<path d="M0 0 C2.95417295 1.3715803 5.52711406 2.86820178 8 5 C8.33 5.99 8.66 6.98 9 8 C9.7734375 8.7115625 9.7734375 8.7115625 10.5625 9.4375 C12 11 12 11 12 15 C13.32 15.33 14.64 15.66 16 16 C15.67 17.32 15.34 18.64 15 20 C14.34 20 13.68 20 13 20 C13 20.66 13 21.32 13 22 C6.565 22.495 6.565 22.495 0 23 C0 25.97 0 28.94 0 32 C-1.98 31.67 -3.96 31.34 -6 31 C-6.33 30.01 -6.66 29.02 -7 28 C-8.65 28.33 -10.3 28.66 -12 29 C-12.268125 28.236875 -12.53625 27.47375 -12.8125 26.6875 C-13.7988658 23.99574277 -13.7988658 23.99574277 -15.625 22.4375 C-17 21 -17 21 -17 17 C-10.73 17 -4.46 17 2 17 C2.33 17.99 2.66 18.98 3 20 C4.65 19.34 6.3 18.68 8 18 C8 17.34 8 16.68 8 16 C8.99 16 9.98 16 11 16 C10.05125 15.21625 9.1025 14.4325 8.125 13.625 C6.32295116 12.13635096 4.65621152 10.65621152 3 9 C0.34462628 8.43479997 -2.29144713 8.26211802 -5 8 C-5 7.67 -5 7.34 -5 7 C-1.535 6.505 -1.535 6.505 2 6 C1.01 5.01 0.02 4.02 -1 3 C-0.67 2.01 -0.34 1.02 0 0 Z " fill="#FBC6EA" transform="translate(143,38)"/>
<path d="M0 0 C-0.33 0.99 -0.66 1.98 -1 3 C-3.5625 4.1875 -3.5625 4.1875 -6 5 C-6 5.66 -6 6.32 -6 7 C-4.7625 7.556875 -4.7625 7.556875 -3.5 8.125 C-2.2625 9.053125 -2.2625 9.053125 -1 10 C-1.0326361 11.95816614 -1.07520129 13.91821465 -1.22265625 15.87109375 C-0.86110062 19.32807304 1.27718308 21.10808814 3.6875 23.45703125 C5 25 5 25 5 28 C0.43335805 27.46274801 -2.24147184 25.55579915 -6 23 C-7.7634375 22.2575 -7.7634375 22.2575 -9.5625 21.5 C-15.66820905 18.83569059 -20.12766633 14.96467587 -23 9 C-22.38511719 8.92523438 -21.77023438 8.85046875 -21.13671875 8.7734375 C-18.62609619 8.36501086 -16.37535153 7.91852622 -14 7 C-12.98377342 5.00819591 -11.98287008 3.00847365 -11 1 C-7.41411177 -0.19529608 -3.74146489 0 0 0 Z " fill="#F5F6FB" transform="translate(185,55)"/>
<path d="M0 0 C-0.33 0.99 -0.66 1.98 -1 3 C-1.66 3 -2.32 3 -3 3 C-2.67 3.99 -2.34 4.98 -2 6 C-1.67 5.34 -1.34 4.68 -1 4 C2.56045177 2.81318274 5.43808337 2.90310168 9.1875 2.9375 C10.45980469 2.94652344 11.73210937 2.95554688 13.04296875 2.96484375 C14.50669922 2.98224609 14.50669922 2.98224609 16 3 C15.67 3.66 15.34 4.32 15 5 C11.9375 5.625 11.9375 5.625 9 6 C9.66 7.65 10.32 9.3 11 11 C10.67 11.33 10.34 11.66 10 12 C10.66 12.4125 11.32 12.825 12 13.25 C12.66 13.8275 13.32 14.405 14 15 C14 16.32 14 17.64 14 19 C15.65 18.67 17.3 18.34 19 18 C15.84483573 21.40992908 12.34171929 23.39415862 8 25 C5.1875 25.0625 5.1875 25.0625 3 24 C0.60029973 20.91467108 -0.79335323 17.92628856 -1 14 C0.25 12.1875 0.25 12.1875 2 11 C2.99 11 3.98 11 5 11 C5 10.01 5 9.02 5 8 C3.02 8 1.04 8 -1 8 C-1 8.99 -1 9.98 -1 11 C-2.32 10.67 -3.64 10.34 -5 10 C-5.33 8.68 -5.66 7.36 -6 6 C-7.32 6 -8.64 6 -10 6 C-4.15384615 0 -4.15384615 0 0 0 Z " fill="#F287C5" transform="translate(117,48)"/>
<path d="M0 0 C0.33 1.32 0.66 2.64 1 4 C2.65 3.67 4.3 3.34 6 3 C6.33 3.99 6.66 4.98 7 6 C9.00016466 7.20882096 9.00016466 7.20882096 11 8 C9.69120986 13.40966591 9.69120986 13.40966591 8 16 C5.79344063 16.87903585 3.74357757 17.134687 1.39453125 17.46484375 C-2.85670305 18.41495647 -5.73698683 21.24042315 -9 24 C-10.5958995 25.32253988 -12.20012499 26.63509692 -13.8125 27.9375 C-14.54082031 28.54464844 -15.26914063 29.15179688 -16.01953125 29.77734375 C-16.99986328 30.38255859 -16.99986328 30.38255859 -18 31 C-18.99 30.67 -19.98 30.34 -21 30 C-20.46375 29.608125 -19.9275 29.21625 -19.375 28.8125 C-15.42318302 25.79663967 -11.72304933 22.73948227 -8.25 19.1875 C-6 17 -6 17 -4 17 C-3.731875 16.401875 -3.46375 15.80375 -3.1875 15.1875 C-2 13 -2 13 -0.4375 11.5 C1.26316011 9.72539815 1.58794182 8.38993744 2 6 C0.35 7.32 -1.3 8.64 -3 10 C-2.67 10.66 -2.34 11.32 -2 12 C-2.66 12 -3.32 12 -4 12 C-4 12.66 -4 13.32 -4 14 C-7 16 -7 16 -11 16 C-11 14.68 -11 13.36 -11 12 C-10.40574219 11.91492188 -9.81148437 11.82984375 -9.19921875 11.7421875 C-6.37122384 10.78780201 -5.52955606 9.53505813 -3.8125 7.125 C-3.30332031 6.42632812 -2.79414063 5.72765625 -2.26953125 5.0078125 C-0.84353284 2.93013265 -0.84353284 2.93013265 0 0 Z " fill="#FAECF7" transform="translate(158,64)"/>
<path d="M0 0 C3.16115776 1.36983503 3.9927092 1.9890638 6 5 C11.54050113 4.43174347 16.03715966 2.37113483 21 0 C22.17539996 0.92652701 23.34010577 1.86663387 24.5 2.8125 C25.47453125 3.59560547 25.47453125 3.59560547 26.46875 4.39453125 C28 6 28 6 28 9 C1.69886797 10.86228059 1.69886797 10.86228059 -7 5 C-6.34 4.67 -5.68 4.34 -5 4 C-5 3.34 -5 2.68 -5 2 C-3 3 -1 4 1 5 C0.67 3.35 0.34 1.7 0 0 Z " fill="#E946A3" transform="translate(115,67)"/>
<path d="M0 0 C0.33 1.65 0.66 3.3 1 5 C1.99 5.33 2.98 5.66 4 6 C4 5.01 4 4.02 4 3 C5.98 3 7.96 3 10 3 C10 3.99 10 4.98 10 6 C8.35 6.33 6.7 6.66 5 7 C4.84850702 10.62885324 4.84850702 10.62885324 6 14 C4.35 14 2.7 14 1 14 C1 12.68 1 11.36 1 10 C0.01 9.67 -0.98 9.34 -2 9 C-1.67 7.68 -1.34 6.36 -1 5 C-1.99 5.33 -2.98 5.66 -4 6 C-3.67 6.99 -3.34 7.98 -3 9 C-3.99 8.67 -4.98 8.34 -6 8 C-6.33 7.34 -6.66 6.68 -7 6 C-8.23267348 7.00836062 -8.23267348 7.00836062 -8.09765625 9.06640625 C-8.08605469 9.89011719 -8.07445313 10.71382812 -8.0625 11.5625 C-8.05347656 12.38878906 -8.04445313 13.21507813 -8.03515625 14.06640625 C-8.02355469 14.70449219 -8.01195313 15.34257813 -8 16 C-7.67 15.34 -7.34 14.68 -7 14 C-6.01 14 -5.02 14 -4 14 C-4 15.98 -4 17.96 -4 20 C-3.4225 20.226875 -2.845 20.45375 -2.25 20.6875 C0.5663661 22.33038023 2.08077114 24.39533227 4 27 C-1.00042767 25.98017593 -5.10157858 23.37018483 -8.3046875 19.37109375 C-9.24783816 17.94259914 -10.12917637 16.47370153 -11 15 C-11.33 14.67 -11.66 14.34 -12 14 C-11.76057944 7.89477579 -10.29364959 5.0984837 -6 1 C-3.79259305 0.29764324 -2.2745544 0 0 0 Z " fill="#FEBDE9" transform="translate(112,53)"/>
<path d="M0 0 C0.66 0.33 1.32 0.66 2 1 C1.69894935 4.61260785 1.29131912 5.74509577 -1.5 8.1875 C-2.325 8.785625 -3.15 9.38375 -4 10 C-4.33 10.66 -4.66 11.32 -5 12 C-5.66 12 -6.32 12 -7 12 C-7.226875 12.61875 -7.45375 13.2375 -7.6875 13.875 C-9.38862958 16.6292098 -11.05376154 16.82150461 -14 18 C-15.1500831 19.96672915 -15.1500831 19.96672915 -16 22 C-19 24 -19 24 -22.375 23.875 C-26.27192798 22.93436221 -28.18613454 21.81386546 -31 19 C-31 18.34 -31 17.68 -31 17 C-30.01 17 -29.02 17 -28 17 C-28 17.66 -28 18.32 -28 19 C-23.15947039 19.11001204 -19.55296823 18.51765608 -15 17 C-15.99 16.34 -16.98 15.68 -18 15 C-13.84015388 11.10014426 -10.44915409 10.10830253 -5 9 C-4.67 7.35 -4.34 5.7 -4 4 C-3.34 4 -2.68 4 -2 4 C-1.34 2.68 -0.68 1.36 0 0 Z " fill="#F1AED7" transform="translate(159,69)"/>
<path d="M0 0 C0.99 0.66 1.98 1.32 3 2 C3 3.32 3 4.64 3 6 C4.65 5.67 6.3 5.34 8 5 C4.84483573 8.40992908 1.34171929 10.39415862 -3 12 C-5.8125 12.0625 -5.8125 12.0625 -8 11 C-9.9375 8.6875 -9.9375 8.6875 -11 6 C-10.5 3.75 -10.5 3.75 -9 2 C-5.70572419 0.90190806 -4.33588828 0.88803724 -1 2 C-0.67 1.34 -0.34 0.68 0 0 Z " fill="#FA99D3" transform="translate(128,61)"/>
<path d="M0 0 C2.95417295 1.3715803 5.52711406 2.86820178 8 5 C8.33 5.99 8.66 6.98 9 8 C9.7734375 8.7115625 9.7734375 8.7115625 10.5625 9.4375 C12 11 12 11 12 15 C13.32 15.33 14.64 15.66 16 16 C15.67 17.32 15.34 18.64 15 20 C12.36 20 9.72 20 7 20 C7.33 18.68 7.66 17.36 8 16 C8.99 16 9.98 16 11 16 C10.05125 15.21625 9.1025 14.4325 8.125 13.625 C6.32295116 12.13635096 4.65621152 10.65621152 3 9 C0.34462628 8.43479997 -2.29144713 8.26211802 -5 8 C-5 7.67 -5 7.34 -5 7 C-1.535 6.505 -1.535 6.505 2 6 C1.01 5.01 0.02 4.02 -1 3 C-0.67 2.01 -0.34 1.02 0 0 Z " fill="#F5D4EA" transform="translate(143,38)"/>
<path d="M0 0 C0.73734375 -0.01611328 1.4746875 -0.03222656 2.234375 -0.04882812 C6.81136135 -0.05292937 9.69660746 0.55734037 13.375 3.3125 C7.375 7.3125 7.375 7.3125 4.375 7.3125 C4.045 6.6525 3.715 5.9925 3.375 5.3125 C-3.225 5.3125 -9.825 5.3125 -16.625 5.3125 C-16.295 4.3225 -15.965 3.3325 -15.625 2.3125 C-10.40972067 0.29781199 -5.54828119 -0.02450654 0 0 Z " fill="#F6A6D6" transform="translate(141.625,50.6875)"/>
<path d="M0 0 C0.928125 0.20625 1.85625 0.4125 2.8125 0.625 C0.58964692 4.14217259 -0.47846359 5.46411261 -4.61328125 6.40234375 C-5.89589844 6.45519531 -7.17851562 6.50804688 -8.5 6.5625 C-9.77488281 6.63339844 -11.04976562 6.70429687 -12.36328125 6.77734375 C-16.40395735 6.61637708 -19.3779996 5.891548 -23.1875 4.625 C-23.1875 3.635 -23.1875 2.645 -23.1875 1.625 C-21.99125 1.645625 -20.795 1.66625 -19.5625 1.6875 C-16.86004511 1.69706621 -14.56338291 1.51901785 -11.875 1.0625 C-9.1875 0.625 -9.1875 0.625 -6.1875 1.625 C-3.1875 -0.375 -3.1875 -0.375 0 0 Z " fill="#E253A8" transform="translate(144.1875,78.375)"/>
<path d="M0 0 C0.33 1.32 0.66 2.64 1 4 C2.65 3.67 4.3 3.34 6 3 C6.33 3.99 6.66 4.98 7 6 C6.34 6.66 5.68 7.32 5 8 C5.66 8.66 6.32 9.32 7 10 C4.0534615 11.80066242 1.11198065 13.50163895 -2 15 C-1.566875 14.1646875 -1.566875 14.1646875 -1.125 13.3125 C0.0413253 10.91505355 1.0339881 8.48403061 2 6 C0.35 7.32 -1.3 8.64 -3 10 C-2.67 10.66 -2.34 11.32 -2 12 C-2.66 12 -3.32 12 -4 12 C-4 12.66 -4 13.32 -4 14 C-7 16 -7 16 -11 16 C-11 14.68 -11 13.36 -11 12 C-10.40574219 11.91492188 -9.81148437 11.82984375 -9.19921875 11.7421875 C-6.37122384 10.78780201 -5.52955606 9.53505813 -3.8125 7.125 C-3.30332031 6.42632812 -2.79414063 5.72765625 -2.26953125 5.0078125 C-0.84353284 2.93013265 -0.84353284 2.93013265 0 0 Z " fill="#F8C7EB" transform="translate(158,64)"/>
<path d="M0 0 C3 1 3 1 4 3 C9.6689342 5.31910944 14.94366714 5.10317585 21.01171875 4.875 C23.97200087 4.99882879 25.5172643 5.45357582 28 7 C26.1875 8.0625 26.1875 8.0625 24 9 C23.01 8.67 22.02 8.34 21 8 C20.67 8.66 20.34 9.32 20 10 C17.03 9.505 17.03 9.505 14 9 C14 8.34 14 7.68 14 7 C13.01 7 12.02 7 11 7 C11 7.66 11 8.32 11 9 C11.99 9.33 12.98 9.66 14 10 C13.01 10.495 13.01 10.495 12 11 C9.65234375 9.890625 9.65234375 9.890625 6.9375 8.25 C6.03902344 7.71890625 5.14054687 7.1878125 4.21484375 6.640625 C2 5 2 5 1 2 C0.34 1.67 -0.32 1.34 -1 1 C-0.67 0.67 -0.34 0.34 0 0 Z " fill="#FBC7ED" transform="translate(117,79)"/>
<path d="M0 0 C6.27 0 12.54 0 19 0 C19.33 0.99 19.66 1.98 20 3 C20.53625 2.814375 21.0725 2.62875 21.625 2.4375 C24.61990614 1.88580676 27.03745829 2.39402556 30 3 C30 3.66 30 4.32 30 5 C25.71 5 21.42 5 17 5 C17 4.34 17 3.68 17 3 C15.72125 3.185625 14.4425 3.37125 13.125 3.5625 C9.25 4.125 9.25 4.125 7 3 C7 2.34 7 1.68 7 1 C5.35 1 3.7 1 2 1 C1.67 1.66 1.34 2.32 1 3 C0.67 2.01 0.34 1.02 0 0 Z " fill="#FBB3E0" transform="translate(126,55)"/>
<path d="M0 0 C0.66 0.66 1.32 1.32 2 2 C1.67 2.33 1.34 2.66 1 3 C0.92820036 4.51928038 0.91607993 6.04167482 0.9375 7.5625 C0.94652344 8.38878906 0.95554687 9.21507813 0.96484375 10.06640625 C0.97644531 10.70449219 0.98804687 11.34257813 1 12 C1.33 11.34 1.66 10.68 2 10 C2.99 10 3.98 10 5 10 C5 11.98 5 13.96 5 16 C5.5775 16.226875 6.155 16.45375 6.75 16.6875 C9.5663661 18.33038023 11.08077114 20.39533227 13 23 C7.99957233 21.98017593 3.89842142 19.37018483 0.6953125 15.37109375 C-0.24783816 13.94259914 -1.12917637 12.47370153 -2 11 C-2.33 10.67 -2.66 10.34 -3 10 C-2.62056512 5.90210331 -2.30694043 3.46041065 0 0 Z " fill="#F9DBF2" transform="translate(103,57)"/>
<path d="M0 0 C-0.33 0.99 -0.66 1.98 -1 3 C-4.49418263 4.16472754 -6.4263938 3.6082734 -10 3 C-10.99 3.495 -10.99 3.495 -12 4 C-13.99960012 4.039992 -16.00047242 4.04346799 -18 4 C-18 2.35 -18 0.7 -18 -1 C-15.56304285 -1.22181406 -13.126474 -1.42791119 -10.6875 -1.625 C-9.99720703 -1.68945312 -9.30691406 -1.75390625 -8.59570312 -1.8203125 C-4.7440028 -2.11802847 -3.31145584 -2.20763723 0 0 Z " fill="#FD9CDE" transform="translate(141,77)"/>
<path d="M0 0 C1.875 0.6875 1.875 0.6875 4 2 C4.66 3.65 5.32 5.3 6 7 C9.63 7 13.26 7 17 7 C17 7.33 17 7.66 17 8 C14.31281432 8.27808896 11.6290842 8.52291845 8.9375 8.75 C8.18533203 8.83121094 7.43316406 8.91242188 6.65820312 8.99609375 C0.8366417 9.44972191 -2.1862753 8.298648 -7 5 C-6.34 4.67 -5.68 4.34 -5 4 C-5 3.34 -5 2.68 -5 2 C-3 3 -1 4 1 5 C0.67 3.35 0.34 1.7 0 0 Z " fill="#A93A78" transform="translate(115,67)"/>
<path d="M0 0 C1.32 0.33 2.64 0.66 4 1 C3.67 2.32 3.34 3.64 3 5 C4.32 5.33 5.64 5.66 7 6 C6.67 6.99 6.34 7.98 6 9 C6.66 9.33 7.32 9.66 8 10 C8.625 12.5625 8.625 12.5625 9 15 C6.53199953 13.84826645 4.95216435 12.95216435 3 11 C3.33 10.34 3.66 9.68 4 9 C1.03 8.505 1.03 8.505 -2 8 C-2.33 6.02 -2.66 4.04 -3 2 C-2.34 1.67 -1.68 1.34 -1 1 C-0.67 1.99 -0.34 2.98 0 4 C0.66 4.33 1.32 4.66 2 5 C1.34 3.35 0.68 1.7 0 0 Z " fill="#E591C3" transform="translate(107,57)"/>
<path d="M0 0 C-0.33 0.99 -0.66 1.98 -1 3 C-1.66 3 -2.32 3 -3 3 C-3 3.99 -3 4.98 -3 6 C-2.01 6.33 -1.02 6.66 0 7 C0.33 6.34 0.66 5.68 1 5 C2.98 5.66 4.96 6.32 7 7 C6.67 7.99 6.34 8.98 6 10 C3.69 9.34 1.38 8.68 -1 8 C-1 8.99 -1 9.98 -1 11 C-2.32 10.67 -3.64 10.34 -5 10 C-5.33 8.68 -5.66 7.36 -6 6 C-7.32 6 -8.64 6 -10 6 C-4.15384615 0 -4.15384615 0 0 0 Z " fill="#D99ABE" transform="translate(117,48)"/>
<path d="M0 0 C2.95409701 1.37154504 5.44008376 2.98863724 8 5 C7.835 5.598125 7.67 6.19625 7.5 6.8125 C6.8885876 9.11344336 6.8885876 9.11344336 7 12 C6.505 11.525625 6.01 11.05125 5.5 10.5625 C2.00531349 8.37832093 -0.90966936 8.34086089 -5 8 C-5 7.67 -5 7.34 -5 7 C-1.535 6.505 -1.535 6.505 2 6 C1.01 5.01 0.02 4.02 -1 3 C-0.67 2.01 -0.34 1.02 0 0 Z " fill="#F3CDE5" transform="translate(143,38)"/>
<path d="M0 0 C0.66 0.33 1.32 0.66 2 1 C-4.61920809 10.37152485 -4.61920809 10.37152485 -9 13 C-12.3125 13.25 -12.3125 13.25 -15 13 C-15 12.01 -15 11.02 -15 10 C-14.41992188 9.86464844 -13.83984375 9.72929688 -13.2421875 9.58984375 C-6.92745189 7.84964433 -3.73416007 5.34497422 0 0 Z " fill="#F2EFF4" transform="translate(184,111)"/>
<path d="M0 0 C0.66 0.33 1.32 0.66 2 1 C1.69894935 4.61260785 1.29131912 5.74509577 -1.5 8.1875 C-2.325 8.785625 -3.15 9.38375 -4 10 C-4.33 10.66 -4.66 11.32 -5 12 C-5.66 12 -6.32 12 -7 12 C-7 12.66 -7 13.32 -7 14 C-9.31 14.33 -11.62 14.66 -14 15 C-11.64619703 11.07699505 -9.35535069 10.16142685 -5 9 C-4.67 7.35 -4.34 5.7 -4 4 C-3.34 4 -2.68 4 -2 4 C-1.34 2.68 -0.68 1.36 0 0 Z " fill="#D389B3" transform="translate(159,69)"/>
<path d="M0 0 C0.33 0 0.66 0 1 0 C1.33 2.97 1.66 5.94 2 9 C-0.97 8.505 -0.97 8.505 -4 8 C-4.33 7.01 -4.66 6.02 -5 5 C-6.65 5.33 -8.3 5.66 -10 6 C-10 5.01 -10 4.02 -10 3 C-8.63875 3.0309375 -8.63875 3.0309375 -7.25 3.0625 C-4.57327412 3.0110245 -2.53011948 2.7784983 0 2 C0 1.34 0 0.68 0 0 Z " fill="#FBB4E4" transform="translate(141,61)"/>
<path d="M0 0 C0.66 1.32 1.32 2.64 2 4 C-2.80348505 5.60116168 -8.1648862 5.6117046 -13 4 C-13 3.01 -13 2.02 -13 1 C-10.98177083 1.03255208 -8.96354167 1.06510417 -6.9453125 1.09765625 C-4.28892869 0.96430365 -2.80063589 0 0 0 Z " fill="#D4338E" transform="translate(134,79)"/>
<path d="M0 0 C0.33 0.99 0.66 1.98 1 3 C1.66 3.66 2.32 4.32 3 5 C1.45571528 6.54428472 -0.17745276 6.41843513 -2.3125 6.6875 C-3.48232422 6.84798828 -3.48232422 6.84798828 -4.67578125 7.01171875 C-7.31894909 6.99839185 -8.75381115 6.34154528 -11 5 C-11 4.34 -11 3.68 -11 3 C-9.73160474 2.49384702 -8.46016898 1.99530901 -7.1875 1.5 C-6.12595703 1.08234375 -6.12595703 1.08234375 -5.04296875 0.65625 C-3 0 -3 0 0 0 Z " fill="#C13885" transform="translate(132,70)"/>
<path d="M0 0 C1.27230469 0.00902344 2.54460937 0.01804688 3.85546875 0.02734375 C5.31919922 0.04474609 5.31919922 0.04474609 6.8125 0.0625 C6.4825 0.7225 6.1525 1.3825 5.8125 2.0625 C3.81366131 2.40272786 1.81359278 2.73579097 -0.1875 3.0625 C-0.8475 3.7225 -1.5075 4.3825 -2.1875 5.0625 C-4.3515625 4.8203125 -4.3515625 4.8203125 -6.8125 4.1875 C-7.62976563 3.98382813 -8.44703125 3.78015625 -9.2890625 3.5703125 C-9.91554688 3.40273438 -10.54203125 3.23515625 -11.1875 3.0625 C-9.07664535 -1.15920929 -4.12352068 -0.03783046 0 0 Z " fill="#F690CB" transform="translate(126.1875,50.9375)"/>
<path d="M0 0 C0 0.66 0 1.32 0 2 C-0.845625 2.06058594 -1.69125 2.12117188 -2.5625 2.18359375 C-8.7359922 2.63959033 -14.86689384 3.15820112 -21 4 C-21 3.34 -21 2.68 -21 2 C-13.94887561 -0.21211746 -7.35342179 -0.20177072 0 0 Z " fill="#EEB6D2" transform="translate(138,45)"/>
<path d="M0 0 C0.33 2.64 0.66 5.28 1 8 C0.01 8.33 -0.98 8.66 -2 9 C-1.67 7.68 -1.34 6.36 -1 5 C-1.99 5.33 -2.98 5.66 -4 6 C-3.67 6.99 -3.34 7.98 -3 9 C-3.99 8.67 -4.98 8.34 -6 8 C-6 7.01 -6 6.02 -6 5 C-6.66 5 -7.32 5 -8 5 C-7.3125 3.0625 -7.3125 3.0625 -6 1 C-3.92477126 0.39261598 -2.1638224 0 0 0 Z " fill="#F5ABD6" transform="translate(112,53)"/>
<path d="M0 0 C0.99 0 1.98 0 3 0 C2.55291464 5.06696738 0.54540971 7.53516778 -3 11 C-5.671875 11.16796875 -5.671875 11.16796875 -8 11 C-7.59007812 10.45730469 -7.18015625 9.91460937 -6.7578125 9.35546875 C-6.21898437 8.64003906 -5.68015625 7.92460938 -5.125 7.1875 C-4.59132812 6.47980469 -4.05765625 5.77210937 -3.5078125 5.04296875 C-2.29185219 3.39543703 -1.13583859 1.70375789 0 0 Z " fill="#C66398" transform="translate(155,64)"/>
<path d="M0 0 C0.66 0.33 1.32 0.66 2 1 C-0.24202506 5.48405012 -2.77987906 7.38352502 -7 10 C-7.886875 10.763125 -8.77375 11.52625 -9.6875 12.3125 C-10.450625 12.869375 -11.21375 13.42625 -12 14 C-12.99 13.67 -13.98 13.34 -15 13 C-14.46375 12.608125 -13.9275 12.21625 -13.375 11.8125 C-8.58051833 8.15355346 -4.19648483 4.31991085 0 0 Z " fill="#FCCFEA" transform="translate(152,81)"/>
<path d="M0 0 C1.93719378 -0.05406122 3.87481921 -0.09282025 5.8125 -0.125 C6.89144531 -0.14820312 7.97039062 -0.17140625 9.08203125 -0.1953125 C12 0 12 0 15 2 C14.67 2.99 14.34 3.98 14 5 C12.22739369 4.54857225 10.4569632 4.08859477 8.6875 3.625 C7.20830078 3.24214844 7.20830078 3.24214844 5.69921875 2.8515625 C3 2 3 2 0 0 Z " fill="#EFEDF2" transform="translate(231,71)"/>
<path d="M0 0 C0.99 0.33 1.98 0.66 3 1 C3 1.66 3 2.32 3 3 C2.34 3.66 1.68 4.32 1 5 C1.66 5.66 2.32 6.32 3 7 C0.0534615 8.80066242 -2.88801935 10.50163895 -6 12 C-5.71125 11.443125 -5.4225 10.88625 -5.125 10.3125 C-3.9586747 7.91505355 -2.9660119 5.48403061 -2 3 C-1.34 3 -0.68 3 0 3 C0 2.01 0 1.02 0 0 Z " fill="#F3D3E7" transform="translate(162,67)"/>
<path d="M0 0 C8.19256018 -0.63019694 8.19256018 -0.63019694 11.5625 2 C12.036875 2.66 12.51125 3.32 13 4 C12.67 4.66 12.34 5.32 12 6 C4.18181818 3.45454545 4.18181818 3.45454545 1 2 C0.67 1.34 0.34 0.68 0 0 Z " fill="#F8B8DD" transform="translate(138,46)"/>
<path d="M0 0 C0.33 0.66 0.66 1.32 1 2 C0.01 3.485 0.01 3.485 -1 5 C-4.07921132 5.25660094 -6.21136993 5.39431504 -9 4 C-9 3.01 -9 2.02 -9 1 C-4.545 0.505 -4.545 0.505 0 0 Z " fill="#F2EEF4" transform="translate(294,119)"/>
<path d="M0 0 C4.95 0 9.9 0 15 0 C14.67 0.99 14.34 1.98 14 3 C9.05 2.67 4.1 2.34 -1 2 C-0.67 1.34 -0.34 0.68 0 0 Z " fill="#F49DD0" transform="translate(133,51)"/>
<path d="M0 0 C0.99 0.33 1.98 0.66 3 1 C3.66 2.65 4.32 4.3 5 6 C8.63 6 12.26 6 16 6 C16 6.33 16 6.66 16 7 C13.91695462 7.05418326 11.83350232 7.09287551 9.75 7.125 C8.00976562 7.15980469 8.00976562 7.15980469 6.234375 7.1953125 C3.17213954 7.0103949 1.55797249 6.60823023 -1 5 C-0.01 5 0.98 5 2 5 C1.34 3.35 0.68 1.7 0 0 Z " fill="#8A1156" transform="translate(116,68)"/>
<path d="M0 0 C0.99 0.495 0.99 0.495 2 1 C2 2.32 2 3.64 2 5 C4.97 5.495 4.97 5.495 8 6 C7.67 7.32 7.34 8.64 7 10 C6.34 10 5.68 10 5 10 C5 9.01 5 8.02 5 7 C3.02 7.99 3.02 7.99 1 9 C0.67 6.03 0.34 3.06 0 0 Z " fill="#F8BBE3" transform="translate(103,60)"/>
<path d="M0 0 C2.31 0.66 4.62 1.32 7 2 C6.67 2.99 6.34 3.98 6 5 C3.69 4.34 1.38 3.68 -1 3 C-1 3.99 -1 4.98 -1 6 C-1.99 6 -2.98 6 -4 6 C-4 4.68 -4 3.36 -4 2 C-2.68 2 -1.36 2 0 2 C0 1.34 0 0.68 0 0 Z " fill="#CF6AA5" transform="translate(117,53)"/>
<path d="M0 0 C0.99 0.33 1.98 0.66 3 1 C4.37407134 3.85384047 3.95284958 5.1634548 3.0625 8.25 C2.711875 9.1575 2.36125 10.065 2 11 C1.34 10.34 0.68 9.68 0 9 C0.66 7.35 1.32 5.7 2 4 C0.68 4 -0.64 4 -2 4 C-1.34 2.68 -0.68 1.36 0 0 Z " fill="#F1F1F1" transform="translate(135,98)"/>
<path d="M0 0 C4.15614642 1.38538214 6.92807792 3.92807792 10 7 C8.68 7.33 7.36 7.66 6 8 C5.67 7.01 5.34 6.02 5 5 C2.98491642 4.26676204 2.98491642 4.26676204 1 4 C0.67 2.68 0.34 1.36 0 0 Z " fill="#F0A3CF" transform="translate(107,70)"/>
<path d="M0 0 C1.9375 0.75 1.9375 0.75 4 2 C4.75 4.125 4.75 4.125 5 6 C2.69 6 0.38 6 -2 6 C-2 5.34 -2 4.68 -2 4 C-1.34 4 -0.68 4 0 4 C0 2.68 0 1.36 0 0 Z " fill="#C13282" transform="translate(138,70)"/>
<path d="M0 0 C0.80824219 0.11085937 1.61648437 0.22171875 2.44921875 0.3359375 C3.37154297 0.47902344 3.37154297 0.47902344 4.3125 0.625 C4.3125 0.955 4.3125 1.285 4.3125 1.625 C1.0125 2.285 -2.2875 2.945 -5.6875 3.625 C-5.3575 4.285 -5.0275 4.945 -4.6875 5.625 C-6.0075 5.295 -7.3275 4.965 -8.6875 4.625 C-7.05790438 -0.26378686 -4.67497252 -0.67753225 0 0 Z " fill="#FBA2D5" transform="translate(121.6875,49.375)"/>
<path d="M0 0 C2.475 0.99 2.475 0.99 5 2 C3.02 2.99 3.02 2.99 1 4 C1 4.66 1 5.32 1 6 C-0.32 6 -1.64 6 -3 6 C-3 3 -3 3 -1.5 1.3125 C-0.7575 0.6628125 -0.7575 0.6628125 0 0 Z " fill="#FBF5FC" transform="translate(232,82)"/>
<path d="M0 0 C0.66 0.66 1.32 1.32 2 2 C1.67 2.33 1.34 2.66 1 3 C0.95919217 4.99958364 0.95745644 7.00045254 1 9 C-0.32 9.33 -1.64 9.66 -3 10 C-2.25 3.375 -2.25 3.375 0 0 Z " fill="#F5D0EA" transform="translate(103,57)"/>
<path d="M0 0 C2.95409701 1.37154504 5.44008376 2.98863724 8 5 C7.67 5.66 7.34 6.32 7 7 C4.69 6.01 2.38 5.02 0 4 C0 2.68 0 1.36 0 0 Z " fill="#E5DCE2" transform="translate(143,38)"/>
<path d="M0 0 C1.98 0 3.96 0 6 0 C6 0.99 6 1.98 6 3 C4.35 3.33 2.7 3.66 1 4 C0.67 4.99 0.34 5.98 0 7 C-1.33332095 4.3333581 -0.67102033 2.83319697 0 0 Z " fill="#F5A6DA" transform="translate(116,56)"/>
<path d="M0 0 C-1.32 0.33 -2.64 0.66 -4 1 C-4 1.99 -4 2.98 -4 4 C-6.31 3.67 -8.62 3.34 -11 3 C-8.89427904 -1.21144191 -4.11694326 -0.07767817 0 0 Z " fill="#FAA1DD" transform="translate(151,75)"/>
<path d="M0 0 C2.31 0.33 4.62 0.66 7 1 C7 1.99 7 2.98 7 4 C4.36 4 1.72 4 -1 4 C-0.67 2.68 -0.34 1.36 0 0 Z " fill="#FBDCF4" transform="translate(151,54)"/>
<path d="M0 0 C1.32 0 2.64 0 4 0 C4.33 0.99 4.66 1.98 5 3 C3.8553125 3.1546875 3.8553125 3.1546875 2.6875 3.3125 C-0.17059424 4.04364039 -1.15742885 4.76951913 -3 7 C-1.125 1.125 -1.125 1.125 0 0 Z " fill="#EDEBF3" transform="translate(326,104)"/>
<path d="M0 0 C3.82097239 0.53069061 6.06171403 1.49701566 9 4 C7.02 4.66 5.04 5.32 3 6 C2.01 4.02 1.02 2.04 0 0 Z " fill="#EB87C3" transform="translate(140,70)"/>
<path d="M0 0 C0.66 0 1.32 0 2 0 C1.67 1.32 1.34 2.64 1 4 C-0.98 4.33 -2.96 4.66 -5 5 C-5.66 3.68 -6.32 2.36 -7 1 C-4.69 1.33 -2.38 1.66 0 2 C0 1.34 0 0.68 0 0 Z " fill="#D992BB" transform="translate(156,58)"/>
<path d="M0 0 C3.875 4.75 3.875 4.75 5 7 C4.01 7.33 3.02 7.66 2 8 C1.34 7.67 0.68 7.34 0 7 C-0.6875 4 -0.6875 4 -1 1 C-0.67 0.67 -0.34 0.34 0 0 Z " fill="#DD85B7" transform="translate(105,58)"/>
<path d="M0 0 C1.32 0 2.64 0 4 0 C3.875 1.875 3.875 1.875 3 4 C-0.0625 5.25 -0.0625 5.25 -3 6 C-2.01 4.02 -1.02 2.04 0 0 Z " fill="#FDD2F2" transform="translate(138,59)"/>
<path d="M0 0 C1.32 0.66 2.64 1.32 4 2 C3.01 2.495 3.01 2.495 2 3 C2 3.66 2 4.32 2 5 C0.35 5 -1.3 5 -3 5 C-1.125 1.125 -1.125 1.125 0 0 Z " fill="#EB81BD" transform="translate(124,56)"/>
<path d="M0 0 C0.66 1.32 1.32 2.64 2 4 C-1 5 -1 5 -3.1875 4.0625 C-3.785625 3.711875 -4.38375 3.36125 -5 3 C-5 2.34 -5 1.68 -5 1 C-3.35 0.67 -1.7 0.34 0 0 Z " fill="#CF76AA" transform="translate(138,87)"/>
<path d="M0 0 C2.4375 0.8125 2.4375 0.8125 5 2 C5.33 2.99 5.66 3.98 6 5 C4.02 5 2.04 5 0 5 C0 3.35 0 1.7 0 0 Z " fill="#F881C8" transform="translate(123,76)"/>
<path d="M0 0 C0.33 0.66 0.66 1.32 1 2 C2.65 2 4.3 2 6 2 C6 2.66 6 3.32 6 4 C3.36 4 0.72 4 -2 4 C-1.34 2.68 -0.68 1.36 0 0 Z " fill="#EFE9EF" transform="translate(160,76)"/>
<path d="M0 0 C0.99 0.66 1.98 1.32 3 2 C2.67 2.99 2.34 3.98 2 5 C1.01 5.33 0.02 5.66 -1 6 C-1.66 5.34 -2.32 4.68 -3 4 C-2.34 3.67 -1.68 3.34 -1 3 C-1.33 2.34 -1.66 1.68 -2 1 C-1.34 0.67 -0.68 0.34 0 0 Z " fill="#F989CF" transform="translate(138,75)"/>
<path d="M0 0 C0.99 0 1.98 0 3 0 C2.67 1.32 2.34 2.64 2 4 C0.35 4 -1.3 4 -3 4 C-3 3.34 -3 2.68 -3 2 C-2.01 2 -1.02 2 0 2 C0 1.34 0 0.68 0 0 Z " fill="#F5EFF5" transform="translate(203,142)"/>
<path d="M0 0 C0.66 0.33 1.32 0.66 2 1 C-2.39453125 5.00390625 -2.39453125 5.00390625 -4 6 C-4.99 5.67 -5.98 5.34 -7 5 C-4.702779 3.25728062 -2.40133271 1.60088848 0 0 Z " fill="#FDE3F2" transform="translate(144,89)"/>
<path d="M0 0 C2.31 0.66 4.62 1.32 7 2 C7 2.66 7 3.32 7 4 C4.69 3.67 2.38 3.34 0 3 C0 2.01 0 1.02 0 0 Z " fill="#C8549A" transform="translate(121,80)"/>
<path d="M0 0 C1.32 0 2.64 0 4 0 C4.33 1.65 4.66 3.3 5 5 C2.53199953 3.84826645 0.95216435 2.95216435 -1 1 C-0.67 0.67 -0.34 0.34 0 0 Z " fill="#EF95C9" transform="translate(111,67)"/>
</svg>
